<?xml version="1.0" encoding="UTF-8"?>
<svg width="471px" height="501px" viewBox="0 0 471 501" version="1.1" xmlns="http://www.w3.org/2000/svg" xmlns:xlink="http://www.w3.org/1999/xlink">
    <title>Group 7</title>
    <defs>
        <path d="M92.2223108,0.0707484663 C41.2671063,0.202355828 0,41.7739264 0,93.0349939 L0,93.0349939 C0,144.37784 41.3980061,186 92.4651943,186 L92.4651943,186 C143.532004,186 184.929632,144.37784 184.929632,93.0349939 L184.929632,93.0349939 C184.929632,41.7739264 143.662526,0.202355828 92.7076994,0.0707484663 L92.7076994,0.0707484663 L92.2223108,0.0707484663 Z" id="path-1"></path>
        <linearGradient x1="0.536189155%" y1="100%" x2="99.4638108%" y2="0%" id="linearGradient-3">
            <stop stop-color="#00AD4A" offset="0%"></stop>
            <stop stop-color="#00EE53" offset="100%"></stop>
        </linearGradient>
    </defs>
    <g id="Page-1" stroke="none" stroke-width="1" fill="none" fill-rule="evenodd">
        <g id="Desktop-HD" transform="translate(-135.000000, -202.000000)">
            <g id="Group-7" transform="translate(138.440384, 204.105399)">
                <g id="Group-8" transform="translate(0.559616, 0.894601)" stroke="#575756" stroke-width="4">
                    <path d="M417.136829,226.904237 C412.125385,214.918215 404.146517,204.257583 393.245527,196.389823 C379.863902,187.603145 364.223886,183.639397 350.113952,176.285964 C336.073554,168.969112 323.278189,159.334663 312.866171,147.361594 C304.010749,137.17773 297.921381,124.188498 286.123954,116.900219 C276.831429,111.15932 265.579973,109.240195 254.827033,110.577268 C244.464114,111.86582 234.289834,116.284792 226.799078,123.683297 C216.852857,133.507738 213.436311,147.301695 210.809798,160.581023 C207.560489,177.013031 203.447031,194.58686 194.863106,209.165678 C189.070504,219.004301 180.655577,225.926292 171.900289,233.011384 C153.755748,247.694252 138.492226,262.469477 137.971838,287.251528 C137.394348,314.736177 155.084273,333.446084 181.858697,337.576783 C196.791026,339.880881 211.009748,337.018381 225.158553,332.26119 C241.919316,326.626093 257.535992,323.331368 275.347572,324.612123 C305.750638,326.797861 335.526128,336.529755 366.164538,330.99671 C397.140413,325.402954 417.901422,302.807423 422.517342,271.754598 C424.777186,256.549806 422.960716,240.832351 417.136829,226.904237" id="Stroke-1" transform="translate(280.708270, 224.279232) rotate(343.000000) translate(-280.708270, -224.279232) "></path>
                    <path d="M352.113017,243.127446 C336.106031,232.625584 317.396746,227.88937 300.518309,219.100911 C283.723054,210.356171 268.417509,198.840803 255.963419,184.529524 C245.371215,172.356862 238.088351,156.830287 223.976307,148.119408 C212.86062,141.257942 199.401003,138.965299 186.537321,140.565063 C174.140217,142.106772 161.968366,147.390572 153.006364,156.235766 C141.106623,167.981255 137.017665,184.471058 133.873873,200.345567 C129.984629,219.988885 125.061473,240.997254 114.790789,258.425965 C107.859928,270.18786 97.7924238,278.463547 87.3177294,286.934252 C65.6098772,304.488609 47.3485119,322.152989 46.7227149,351.77762 C46.0282522,384.632956 67.1878549,406.996517 99.2169681,411.930833 C117.079881,414.683187 134.089805,411.259465 151.016337,405.57083 C171.067614,398.832399 189.749936,394.891808 211.05737,396.420473 C247.427604,399.029297 283.046086,410.658907 319.698875,404.040635 C356.755373,397.349744 381.594292,370.336213 387.120311,333.214931 C389.825718,315.038764 387.654786,296.250295 380.689635,279.601341 C374.696134,265.273865 365.152595,252.531157 352.113017,243.127446 Z" id="Stroke-1" transform="translate(217.476958, 276.488527) rotate(135.000000) translate(-217.476958, -276.488527) "></path>
                    <path d="M252.632925,423.619364 C205.065794,409.661069 189.526108,375.761884 181.180091,331.9919 C174.038307,294.540809 175.117925,251.745826 153.257229,221.16558 C131.463801,190.679011 100.476309,173.731479 93.9864339,136.434362 C85.2862725,86.4291533 120.258026,54.7876094 159.758018,47.6409457 C214.524293,37.7312956 251.988045,76.9490384 259.021834,123.713636 C264.843099,162.412524 269.031946,202.814976 308.722309,237.562324 C338.123246,263.30177 386.952738,264.438325 397.927148,307.530214 C410.372983,356.402232 340.610209,449.436667 252.632925,423.619364 Z" id="Stroke-1" transform="translate(246.007180, 237.078989) rotate(-24.000000) translate(-246.007180, -237.078989) "></path>
                </g>
                <g id="Group-6" transform="translate(147.559616, 151.894601)">
                    <g id="Group-3">
                        <mask id="mask-2" fill="white">
                            <use xlink:href="#path-1"></use>
                        </mask>
                        <g id="Clip-2"></g>
                        <path d="M92.2223108,0.0707484663 C41.2671063,0.202355828 0,41.7739264 0,93.0349939 C0,144.37784 41.3980061,186 92.4651943,186 C143.532004,186 184.929632,144.37784 184.929632,93.0349939 C184.929632,41.7739264 143.662526,0.202355828 92.7076994,0.0707484663 L92.2223108,0.0707484663 Z" id="Fill-1" fill="url(#linearGradient-3)" mask="url(#mask-2)"></path>
                    </g>
                    <path d="M169.776705,49.2149329 C167.33233,46.4417101 162.485457,48.838122 162.485457,48.838122 L161.624512,49.2221067 C161.373623,48.8199988 160.954846,48.5273851 160.448163,48.466597 C159.559677,48.3597458 158.752682,48.9948119 158.647044,49.8836024 C158.621012,50.1059888 158.640254,50.3238444 158.699109,50.5262199 L149.500727,54.6258322 C149.500727,54.6258322 145.01038,57.3624311 144.980198,60.9304304 C144.721387,62.5928538 144.090203,63.6549472 143.201716,64.3160653 C142.467913,64.7476234 141.772215,65.1070663 141.090853,65.4415898 C138.359371,66.5033056 133.633226,65.6148926 131.463508,62.6944191 C126.626822,56.1836698 122.006692,49.4954645 116.885916,43.2165408 C111.492747,36.6046038 100.205762,28.7674649 81.9127492,31.9805522 C75.0459371,33.6814873 69.2777546,36.7163634 64.7715625,40.6970424 C57.8806047,46.4515269 53.7614984,54.5472985 53.7614984,63.8637412 C53.7614984,64.0646063 53.7860213,64.2488586 53.7886623,64.4474583 C53.7848895,64.6679569 53.7611211,64.8831696 53.7611211,65.1048009 C53.7611211,67.7896732 54.1180248,69.9104618 54.7152537,71.552119 C57.9213506,84.2772282 68.8744459,91.1394915 78.4089811,95.2062556 L95.8289753,102.809304 C107.319313,108.002725 116.213609,111.896564 116.213609,124.323018 C116.213609,133.784824 110.191897,140.756959 99.6824788,143.202454 C90.5538933,144.596428 82.3824586,141.080533 77.6880054,134.75177 C72.941488,128.353158 68.2779715,121.882053 63.2654741,115.696011 C60.6192558,112.430442 56.8185709,110.765753 52.5919408,109.960027 C44.5665121,108.430507 38.6168596,112.314152 32.7185166,116.876282 C25.5770472,122.400074 16.4635527,129.070911 9.21455939,134.455003 C10.6206694,137.256544 12.7043683,141.057124 15.6403351,145.664185 C24.5776413,138.965408 36.0736378,130.289695 44.6736587,123.93337 C48.4173748,121.166188 51.5034977,121.718945 54.2644081,125.435328 C59.1014719,131.945699 63.7216016,138.63466 68.8423774,144.913206 C74.2359242,151.525521 85.5225321,159.362282 103.815544,156.149195 C121.458132,151.779245 131.966795,138.687142 131.966795,123.024946 C131.966795,105.036566 121.033318,96.6900903 106.949204,90.5689892 L89.5288327,83.1505711 C80.6745273,79.3284698 70.6853738,75.1805289 69.4562065,65.0685545 C69.4920478,64.6547421 69.5146843,64.2345111 69.5146843,63.8067287 C69.5146843,57.9574752 71.8213537,53.064219 76.0611886,49.5992952 C80.0188205,46.7335687 85.5263048,45.132311 92.1226096,45.132311 C92.3082297,45.1319334 92.5764734,45.1443931 92.8643354,45.1606285 C99.1512733,45.9002804 104.554629,48.6795442 108.039911,53.3775988 C112.786806,59.7765885 117.450322,66.2476933 122.462819,72.4337358 C125.108661,75.6993047 128.9101,77.3643711 133.136353,78.1697195 C137.27885,78.9592101 142.230983,77.7706322 146.241057,75.0997298 C146.344431,75.0359211 146.445918,74.9853273 146.548915,74.9188757 C147.385337,74.3336483 148.269673,73.7129296 148.958958,73.2239816 C149.881399,72.563241 150.856282,71.4558397 152.326152,71.6317855 C155.258723,71.9829219 157.99511,72.3102717 161.269872,68.1381666 C163.064199,65.8516265 165.396146,62.5324432 167.140673,59.9944441 C167.266684,60.0442829 167.397599,60.0835497 167.537946,60.1005402 C168.426809,60.2066363 169.23305,59.5723253 169.339442,58.6827796 C169.39792,58.190811 169.22475,57.7290477 168.912365,57.3918812 C169.35076,56.7424676 169.619381,56.339227 169.619381,56.339227 C169.619381,56.339227 172.221081,51.9877781 169.776705,49.2149329" id="Fill-4" fill="#FEFEFE"></path>
                </g>
            </g>
        </g>
    </g>
</svg>