<?xml version="1.0" encoding="UTF-8"?>
<svg width="622px" height="628px" viewBox="0 0 622 628" version="1.1" xmlns="http://www.w3.org/2000/svg" xmlns:xlink="http://www.w3.org/1999/xlink">
    <title>Group 7</title>
    <defs>
        <path d="M130.108233,0.0996564417 C58.2200798,0.285038855 0,58.8428425 0,131.049292 L0,131.049292 C0,203.370937 58.4047546,262 130.450896,262 L130.450896,262 C202.496503,262 260.900724,203.370937 260.900724,131.049292 L260.900724,131.049292 C260.900724,58.8428425 202.680644,0.285038855 130.793025,0.0996564417 L130.793025,0.0996564417 L130.108233,0.0996564417 Z" id="path-1"></path>
        <linearGradient x1="0.380950994%" y1="100%" x2="99.619049%" y2="0%" id="linearGradient-3">
            <stop stop-color="#00AD4A" offset="0%"></stop>
            <stop stop-color="#00EE53" offset="100%"></stop>
        </linearGradient>
    </defs>
    <g id="Page-1" stroke="none" stroke-width="1" fill="none" fill-rule="evenodd">
        <g id="Desktop-HD" transform="translate(-85.000000, -141.000000)">
            <g id="Group-7" transform="translate(88.440384, 143.105399)">
                <path d="M568.691406,351.871442 C561.614995,334.958275 550.350097,319.914637 534.96095,308.81114 C516.070013,296.410567 493.992136,290.814661 474.073416,280.43624 C454.252861,270.109449 436.189307,256.512794 421.48957,239.616837 C408.987443,225.24574 400.389262,206.91684 383.734839,196.630809 C370.616585,188.528612 354.733903,185.81852 339.55556,187.702994 C324.92775,189.519082 310.566839,195.752203 299.994518,206.189952 C285.956598,220.050189 281.136605,239.512672 277.431701,258.249173 C272.848296,281.433956 267.045305,306.229669 254.93131,326.798561 C246.756547,340.679631 234.879594,350.444839 222.522225,360.440115 C196.912701,381.153932 175.369976,401.998635 174.640305,436.965797 C173.830564,475.746291 198.804962,502.149309 236.599954,507.982981 C257.678548,511.236994 277.748812,507.200841 297.720006,500.491279 C321.378009,492.543518 343.421507,487.897775 368.564186,489.708428 C411.480902,492.798495 453.513237,506.535999 496.760635,498.734973 C540.484378,490.848352 569.785687,458.97035 576.295279,415.155987 C579.48222,393.702601 576.915025,371.525044 568.691406,351.871442" id="Stroke-1" stroke="#3C3C3B" stroke-width="4" transform="translate(376.121182, 348.130004) rotate(343.000000) translate(-376.121182, -348.130004) "></path>
                <path d="M327.105704,557.154312 C264.612159,538.798884 244.188999,494.245256 233.213928,436.721323 C223.822433,387.501885 225.230295,331.261589 196.503875,291.068118 C167.865852,250.997772 127.152663,228.717987 118.617635,179.701058 C107.175793,113.982795 153.11133,72.4084815 205.001713,63.0260985 C276.947121,50.0163721 326.173777,101.564936 335.425672,163.024026 C343.082673,213.882979 348.595541,266.980332 400.74626,312.654511 C439.377301,346.488116 503.526108,347.993704 517.953997,404.627136 C534.316349,468.857092 442.68998,591.104562 327.105704,557.154312 Z" id="Stroke-1" stroke="#3C3C3B" stroke-width="4" transform="translate(318.351660, 312.000000) rotate(-24.000000) translate(-318.351660, -312.000000) "></path>
                <path d="M303.863045,542.698784 C244.160775,525.147778 224.649815,482.546699 214.164946,427.543735 C205.192922,380.481324 206.537902,326.705743 179.094548,288.273738 C151.735642,249.959463 112.840909,228.656083 104.687098,181.787306 C93.7563055,118.949127 137.640131,79.1967948 187.21283,70.225592 C255.944795,57.7860129 302.972743,107.075476 311.811401,165.84114 C319.126402,214.471214 324.393038,265.241592 374.214444,308.914114 C411.120029,341.264971 472.403629,342.704577 486.187096,396.856066 C501.818624,458.271163 414.284748,575.161175 303.863045,542.698784 Z" id="Stroke-1" stroke="#3C3C3B" stroke-width="4" transform="translate(295.500000, 308.288287) scale(-1, 1) rotate(-35.000000) translate(-295.500000, -308.288287) "></path>
                <g id="Group-6" transform="translate(187.559616, 180.894601)">
                    <g id="Group-3">
                        <mask id="mask-2" fill="white">
                            <use xlink:href="#path-1"></use>
                        </mask>
                        <g id="Clip-2"></g>
                        <path d="M130.108233,0.0996564417 C58.2200798,0.285038855 0,58.8428425 0,131.049292 C0,203.370937 58.4047546,262 130.450896,262 C202.496503,262 260.900724,203.370937 260.900724,131.049292 C260.900724,58.8428425 202.680644,0.285038855 130.793025,0.0996564417 L130.108233,0.0996564417 Z" id="Fill-1" fill="url(#linearGradient-3)" mask="url(#mask-2)"></path>
                    </g>
                    <path d="M239.522811,69.3242603 C236.07426,65.4178928 229.236239,68.7934836 229.236239,68.7934836 L228.021608,69.3343653 C227.667652,68.7679553 227.076836,68.355779 226.362003,68.2701527 C225.108517,68.1196419 223.97,69.0141974 223.820965,70.2661496 C223.784239,70.5794036 223.811385,70.8862755 223.894418,71.1713419 L210.917242,76.9460647 C210.917242,76.9460647 204.582212,80.8008438 204.539631,85.8267353 C204.174497,88.1684285 203.284016,89.6644955 202.030529,90.595748 C200.995272,91.2036415 200.013774,91.7099535 199.052501,92.1811641 C195.198896,93.6766993 188.5312,92.4252788 185.470139,88.3114935 C178.646489,79.1404381 172.12836,69.7194177 164.903914,60.8749123 C157.295172,51.5613236 141.371372,40.521913 115.563392,45.0478746 C105.875619,47.4438155 97.7378052,51.7187484 91.3804206,57.3259415 C81.6585828,65.4317206 75.8473031,76.8354419 75.8473031,89.9586032 C75.8473031,90.2415423 75.8819004,90.5010804 75.8856262,90.7808284 C75.8803036,91.0914232 75.8467708,91.3945722 75.8467708,91.7067625 C75.8467708,95.4886794 76.3502944,98.4760268 77.1928714,100.788469 C81.7160675,118.713085 97.1688129,128.379284 110.620238,134.107736 L135.196554,144.817406 C151.407246,152.13287 163.955416,157.61774 163.955416,175.121671 C163.955416,188.44959 155.459919,198.270555 140.633119,201.715285 C127.754412,203.67884 116.226063,198.726342 109.603078,189.811634 C102.90664,180.798535 96.3273004,171.683323 89.2556148,162.96965 C85.5223014,158.369762 80.1602541,156.024878 74.1972786,154.889931 C62.8749171,152.735446 54.481083,158.205956 46.159637,164.632183 C36.0843746,172.413008 23.2269581,181.809563 13,189.393607 C14.9837552,193.339863 17.9234601,198.693368 22.0655538,205.182884 C34.6744021,195.746972 50.8930781,183.526344 63.0260807,174.572811 C68.3077558,170.674953 72.6616913,171.453568 76.5568136,176.688472 C83.3809955,185.858996 89.8991244,195.28108 97.1235703,204.125054 C104.732844,213.439174 120.656113,224.478053 146.464092,219.952091 C171.354445,213.796571 186.180181,195.355006 186.180181,173.293203 C186.180181,147.954732 170.755114,136.197869 150.885093,127.575673 L126.308245,117.126073 C113.816495,111.742253 99.7236895,105.899455 97.989567,91.6557058 C98.0401322,91.0728088 98.0720682,90.4808704 98.0720682,89.8782953 C98.0720682,81.6390242 101.326342,74.7463729 107.307947,69.8656738 C112.891417,65.8290054 120.661435,63.5734704 129.967574,63.5734704 C130.229448,63.5729385 130.607889,63.5904892 131.014008,63.6133584 C139.883688,64.6552337 147.506801,68.5701107 152.423874,75.1878005 C159.120845,84.2014311 165.700184,93.3166433 172.77187,102.030316 C176.504651,106.630203 181.867763,108.975619 187.830206,110.110035 C193.674486,111.222113 200.661009,109.54788 206.318464,105.785641 C206.464305,105.69576 206.607484,105.624493 206.752793,105.530889 C207.932827,104.706537 209.180458,103.832191 210.152908,103.143458 C211.454298,102.212737 212.829673,100.652849 214.903382,100.900687 C219.040685,101.395299 222.90121,101.856404 227.521278,95.9795681 C230.052735,92.7587428 233.342671,88.083334 235.803869,84.508303 C235.981646,84.578506 236.166342,84.6338174 236.364345,84.6577502 C237.618364,84.8071973 238.755816,83.9137055 238.905915,82.6606896 C238.988416,81.9677016 238.744106,81.3172608 238.30339,80.8423273 C238.921883,79.9275619 239.300856,79.3595564 239.300856,79.3595564 C239.300856,79.3595564 242.971362,73.230096 239.522811,69.3242603" id="Fill-4" fill="#FEFEFE"></path>
                </g>
            </g>
        </g>
    </g>
</svg>